# ProBuilder 4.4.0
# https://unity3d.com/unity/features/worldbuilding/probuilder
# 04.02.2021 11:07:30

mtllib ./Window1_2.mtl
o Window1_2

g Window2
v -4.0001 -10.5001 0.5
v -5.0001 -10.5001 0.5
v -4.0001 -9.500099 0.5
v -5.0001 -9.500099 0.5
v -5.0001 -10.5001 -0.5
v -5.0001 -9.500099 -0.5
v -4.0001 -10.5001 -0.5
v -4.0001 -9.500099 -0.5
v 5.0001 -10.5001 -0.5
v 5.0001 -10.5001 0.5
v 5.0001 -9.500099 -0.5
v 5.0001 -9.500099 0.5
v -4.0001 10.5001 0.5
v -5.0001 10.5001 0.5
v -4.0001 10.5001 -0.5
v -5.0001 10.5001 -0.5
v 4 -10.5001 -0.5
v 4 -10.5001 0.5
v 4 -9.500099 -0.5
v 4 -9.500099 0.5
v 4 10.5001 0.5
v 4 10.5001 -0.5
v 5.0001 10.5001 0.5
v 5.0001 10.5001 -0.5
v 4 9.5 0.5
v 4 9.5 -0.5
v 5.0001 9.5 0.5
v 5.0001 9.5 -0.5
v -4.0001 9.5 0.5
v -5.0001 9.5 0.5
v -4.0001 9.5 -0.5
v -5.0001 9.5 -0.5
v 4 2.25 0.25
v -4 2.25 0.25
v 4 3.25 0.25
v -4 3.25 0.25
v -4 2.25 0
v -4 3.25 0
v 4 2.25 0
v 4 3.25 0

vt -4.0001 -10.5001
vt -5.0001 -10.5001
vt -4.0001 -9.500099
vt -5.0001 -9.500099
vt 0.5 -10.5001
vt -0.5 -10.5001
vt 0.5 -9.500099
vt -0.5 -9.500099
vt 5.0001 -10.5001
vt 4.0001 -10.5001
vt 5.0001 -9.500099
vt 4.0001 -9.500099
vt 4.0001 0.5
vt 5.0001 0.5
vt 4.0001 -0.5
vt 5.0001 -0.5
vt -4.0001 -0.5
vt -5.0001 -0.5
vt -4.0001 0.5
vt -5.0001 0.5
vt 0.5 9.5
vt -0.5 9.5
vt 5.0001 9.5
vt 4 9.5
vt -4 9.5
vt -5.0001 9.5
vt 5.0001 10.5001
vt 4 10.5001
vt -4 10.5001
vt -5.0001 10.5001
vt 0.5 10.5001
vt -0.5 10.5001
vt 4 7.75
vt -4 7.75
vt 4 8.75
vt -4 8.75
vt 0.25 7.75
vt 0 7.75
vt 0.25 8.75
vt 0 8.75
vt -0.25 7.75
vt -0.25 8.75
vt -4 0.25
vt 4 0.25
vt -4 0
vt 4 0

vn 0 0 1
vn -1 0 0
vn 0 0 -1
vn 1 0 0
vn 0 1 0
vn 0 -1 0

usemtl ProBuilderDefault
f 3/3/1 4/4/1 2/2/1 1/1/1
f 4/7/2 6/8/2 5/6/2 2/5/2
f 6/11/3 8/12/3 7/10/3 5/9/3
f 11/7/4 12/8/4 10/6/4 9/5/4
f 15/15/5 16/16/5 14/14/5 13/13/5
f 1/19/6 2/20/6 5/18/6 7/17/6
f 17/15/6 18/13/6 1/19/6 7/17/6
f 19/3/3 17/1/3 7/10/3 8/12/3
f 18/10/1 20/12/1 3/3/1 1/1/1
f 20/19/5 19/17/5 8/15/5 3/13/5
f 9/16/6 10/14/6 18/13/6 17/15/6
f 11/4/3 9/2/3 17/1/3 19/3/3
f 10/9/1 12/11/1 20/12/1 18/10/1
f 23/20/5 24/18/5 22/17/5 21/19/5
f 25/21/2 26/22/2 19/8/2 20/7/2
f 27/23/1 25/24/1 20/12/1 12/11/1
f 26/25/3 28/26/3 11/4/3 19/3/3
f 28/21/4 27/22/4 12/8/4 11/7/4
f 29/25/1 30/26/1 4/4/1 3/3/1
f 31/21/4 29/22/4 3/8/4 8/7/4
f 30/21/2 32/22/2 6/8/2 4/7/2
f 32/23/3 31/24/3 8/12/3 6/11/3
f 23/27/1 21/28/1 25/24/1 27/23/1
f 22/29/3 24/30/3 28/26/3 26/25/3
f 24/31/4 23/32/4 27/22/4 28/21/4
f 13/29/1 14/30/1 30/26/1 29/25/1
f 14/31/2 16/32/2 32/22/2 30/21/2
f 16/27/3 15/28/3 31/24/3 32/23/3
f 26/15/6 25/13/6 29/19/6 31/17/6
f 22/29/3 26/25/3 31/24/3 15/28/3
f 25/24/1 21/28/1 13/29/1 29/25/1
f 21/19/5 22/17/5 15/15/5 13/13/5
f 35/35/1 36/36/1 34/34/1 33/33/1
f 36/39/2 38/40/2 37/38/2 34/37/2
f 38/35/3 40/36/3 39/34/3 37/33/3
f 40/40/4 35/42/4 33/41/4 39/38/4
f 40/45/5 38/46/5 36/44/5 35/43/5
f 33/44/6 34/43/6 37/45/6 39/46/6

