# ProBuilder 4.4.0
# https://unity3d.com/unity/features/worldbuilding/probuilder
# 04.02.2021 11:14:05

mtllib ./Window2_2.mtl
o Window2_2

g Window2_2
v -5.5 -9.5 0.25
v -6 -9.5 0.25
v -5.5 9.5 0.25
v -6 9.5 0.25
v -6 -9.5 0
v -6 9.5 0
v -5.5 -9.5 0
v -5.5 9.5 0
v 6 -9.5 0.25
v 5.5 -9.5 0.25
v 6 9.5 0.25
v 5.5 9.5 0.25
v 5.5 -9.5 0
v 5.5 9.5 0
v 6 -9.5 0
v 6 9.5 0
v -9.0001 -10.5001 0.5
v -10.0001 -10.5001 0.5
v -9.0001 -9.500099 0.5
v -10.0001 -9.500099 0.5
v -10.0001 -10.5001 -0.5
v -10.0001 -9.500099 -0.5
v -9.0001 -10.5001 -0.5
v -9.0001 -9.500099 -0.5
v 10.0001 -10.5001 -0.5
v 10.0001 -10.5001 0.5
v 10.0001 -9.500099 -0.5
v 10.0001 -9.500099 0.5
v -9.0001 10.5001 0.5
v -10.0001 10.5001 0.5
v -9.0001 10.5001 -0.5
v -10.0001 10.5001 -0.5
v 9 -10.5001 -0.5
v 9 -10.5001 0.5
v 9 -9.500099 -0.5
v 9 -9.500099 0.5
v 9 10.5001 0.5
v 9 10.5001 -0.5
v 10.0001 10.5001 0.5
v 10.0001 10.5001 -0.5
v 9 9.5 0.5
v 9 9.5 -0.5
v 10.0001 9.5 0.5
v 10.0001 9.5 -0.5
v -9.0001 9.5 0.5
v -10.0001 9.5 0.5
v -9.0001 9.5 -0.5
v -10.0001 9.5 -0.5
v 9 2.25 0.25
v -9 2.25 0.25
v 9 3.25 0.25
v -9 3.25 0.25
v -9 2.25 0
v -9 3.25 0
v 9 2.25 0
v 9 3.25 0

vt -5.5 -9.5
vt -6 -9.5
vt -5.5 9.5
vt -6 9.5
vt 0.25 -9.5
vt 0 -9.5
vt 0.25 9.5
vt 0 9.5
vt 6 -9.5
vt 5.5 -9.5
vt 6 9.5
vt 5.5 9.5
vt -0.25 -9.5
vt -0.25 9.5
vt 5.5 0.25
vt 6 0.25
vt 5.5 0
vt 6 0
vt -5.5 0
vt -6 0
vt -5.5 0.25
vt -6 0.25
vt -19.5001 -10.5001
vt -20.5001 -10.5001
vt -19.5001 -9.500099
vt -20.5001 -9.500099
vt 0.75 -10.5001
vt -0.25 -10.5001
vt 0.75 -9.500099
vt 20.5001 -10.5001
vt 19.5001 -10.5001
vt 20.5001 -9.500099
vt 19.5001 -9.500099
vt 0.25 -10.5001
vt -0.75 -10.5001
vt -0.75 -9.500099
vt 19.5001 0.75
vt 20.5001 0.75
vt 19.5001 -0.25
vt 20.5001 -0.25
vt -19.5001 -0.25
vt -20.5001 -0.25
vt -19.5001 0.75
vt -20.5001 0.75
vt -1.5 -0.25
vt -1.5 0.75
vt 1.5 -9.500099
vt 1.5 -10.5001
vt -1.5 -10.5001
vt -1.5 -9.500099
vt 1.5 0.75
vt 1.5 -0.25
vt -0.4998999 -0.25
vt -0.4998999 0.75
vt 0.4998999 -9.500099
vt 0.4998999 -10.5001
vt -0.4998999 -10.5001
vt -0.4998999 -9.500099
vt 0.4998999 0.75
vt 0.4998999 -0.25
vt 0.75 9.5
vt -0.4998999 9.5
vt -1.5 9.5
vt 1.5 9.5
vt 0.4998999 9.5
vt -0.75 9.5
vt -19.5001 9.5
vt -20.5001 9.5
vt 20.5001 9.5
vt 19.5001 9.5
vt -0.4998999 10.5001
vt -1.5 10.5001
vt 1.5 10.5001
vt 0.4998999 10.5001
vt 0.25 10.5001
vt -0.75 10.5001
vt -19.5001 10.5001
vt -20.5001 10.5001
vt 0.75 10.5001
vt -0.25 10.5001
vt 20.5001 10.5001
vt 19.5001 10.5001
vt -1.5 7.75
vt -19.5 7.75
vt -1.5 8.75
vt -19.5 8.75
vt 0.5 7.75
vt 0.25 7.75
vt 0.5 8.75
vt 0.25 8.75
vt 19.5 7.75
vt 1.5 7.75
vt 19.5 8.75
vt 1.5 8.75
vt -0.25 7.75
vt -0.5 7.75
vt -0.25 8.75
vt -0.5 8.75
vt 1.5 0.5
vt 19.5 0.5
vt 1.5 0.25
vt 19.5 0.25
vt -1.5 0.25
vt -19.5 0.25
vt -1.5 0.5
vt -19.5 0.5

vn 0 0 1
vn -1 0 0
vn 0 0 -1
vn 1 0 0
vn 0 1 0
vn 0 -1 0

usemtl ProBuilderDefault
f 3/3/1 4/4/1 2/2/1 1/1/1
f 4/7/2 6/8/2 5/6/2 2/5/2
f 6/11/3 8/12/3 7/10/3 5/9/3
f 8/8/4 3/14/4 1/13/4 7/6/4
f 8/17/5 6/18/5 4/16/5 3/15/5
f 1/21/6 2/22/6 5/20/6 7/19/6
f 11/3/1 12/4/1 10/2/1 9/1/1
f 12/7/2 14/8/2 13/6/2 10/5/2
f 14/11/3 16/12/3 15/10/3 13/9/3
f 16/8/4 11/14/4 9/13/4 15/6/4
f 16/17/5 14/18/5 12/16/5 11/15/5
f 9/21/6 10/22/6 13/20/6 15/19/6
f 19/25/1 20/26/1 18/24/1 17/23/1
f 20/29/2 22/13/2 21/28/2 18/27/2
f 22/32/3 24/33/3 23/31/3 21/30/3
f 27/5/4 28/36/4 26/35/4 25/34/4
f 31/39/5 32/40/5 30/38/5 29/37/5
f 17/43/6 18/44/6 21/42/6 23/41/6
f 33/45/6 34/46/6 17/43/6 23/41/6
f 35/47/3 33/48/3 23/31/3 24/33/3
f 34/49/1 36/50/1 19/25/1 17/23/1
f 36/51/5 35/52/5 24/39/5 19/37/5
f 25/53/6 26/54/6 34/46/6 33/45/6
f 27/55/3 25/56/3 33/48/3 35/47/3
f 26/57/1 28/58/1 36/50/1 34/49/1
f 39/59/5 40/60/5 38/52/5 37/51/5
f 41/61/2 42/14/2 35/13/2 36/29/2
f 43/62/1 41/63/1 36/50/1 28/58/1
f 42/64/3 44/65/3 27/55/3 35/47/3
f 44/7/4 43/66/4 28/36/4 27/5/4
f 45/67/1 46/68/1 20/26/1 19/25/1
f 47/7/4 45/66/4 19/36/4 24/5/4
f 46/61/2 48/14/2 22/13/2 20/29/2
f 48/69/3 47/70/3 24/33/3 22/32/3
f 39/71/1 37/72/1 41/63/1 43/62/1
f 38/73/3 40/74/3 44/65/3 42/64/3
f 40/75/4 39/76/4 43/66/4 44/7/4
f 29/77/1 30/78/1 46/68/1 45/67/1
f 30/79/2 32/80/2 48/14/2 46/61/2
f 32/81/3 31/82/3 47/70/3 48/69/3
f 42/45/6 41/46/6 45/43/6 47/41/6
f 38/73/3 42/64/3 47/70/3 31/82/3
f 41/63/1 37/72/1 29/77/1 45/67/1
f 37/51/5 38/52/5 31/39/5 29/37/5
f 51/85/1 52/86/1 50/84/1 49/83/1
f 52/89/2 54/90/2 53/88/2 50/87/2
f 54/93/3 56/94/3 55/92/3 53/91/3
f 56/97/4 51/98/4 49/96/4 55/95/4
f 56/101/5 54/102/5 52/100/5 51/99/5
f 49/105/6 50/106/6 53/104/6 55/103/6

